<svg width="179" height="178" viewBox="0 0 179 178" fill="none" xmlns="http://www.w3.org/2000/svg">
<path d="M149.602 28.4819C151.735 29.8005 154.193 30.4989 156.701 30.4989C159.208 30.4989 161.666 29.8005 163.799 28.4819C166.298 26.9375 168.224 24.6205 169.286 21.8823C170.349 19.1441 170.489 16.1342 169.687 13.309C168.884 10.4837 167.182 7.99738 164.838 6.22699C162.495 4.45661 159.638 3.49878 156.701 3.49878C153.763 3.49878 150.907 4.45661 148.563 6.22699C146.219 7.99738 144.517 10.4837 143.715 13.309C142.912 16.1342 143.052 19.1441 144.115 21.8823C145.177 24.6205 147.103 26.9375 149.602 28.4819Z" fill="#EBEBEB"/>
<path d="M152.591 15.4541C152.591 16.2673 152.832 17.0622 153.284 17.7383C153.736 18.4145 154.378 18.9415 155.129 19.2527C155.88 19.5638 156.707 19.6453 157.505 19.4866C158.302 19.328 159.035 18.9364 159.61 18.3614C160.185 17.7864 160.577 17.0538 160.735 16.2562C160.894 15.4586 160.812 14.6319 160.501 13.8807C160.19 13.1294 159.663 12.4872 158.987 12.0355C158.311 11.5837 157.516 11.3425 156.703 11.3425C156.163 11.342 155.628 11.4479 155.129 11.6543C154.629 11.8608 154.176 12.1636 153.794 12.5455C153.412 12.9274 153.109 13.3809 152.903 13.88C152.696 14.3791 152.59 14.914 152.591 15.4541Z" fill="white"/>
<path d="M149.602 26.7879V28.4819C151.735 29.8005 154.193 30.499 156.7 30.499C159.208 30.499 161.666 29.8005 163.799 28.4819V26.7922C163.823 25.8452 163.656 24.9031 163.31 24.0214C162.964 23.1397 162.445 22.3361 161.783 21.6581C161.122 20.98 160.331 20.4412 159.458 20.0733C158.585 19.7054 157.648 19.5159 156.7 19.5159C155.753 19.5159 154.815 19.7054 153.942 20.0733C153.07 20.4412 152.279 20.98 151.618 21.6581C150.956 22.3361 150.437 23.1397 150.091 24.0214C149.744 24.9031 149.578 25.8452 149.602 26.7922V26.7879Z" fill="white"/>
<path d="M36.0144 29.0591C37.7512 24.6924 35.6193 19.7445 31.2526 18.0077C26.8859 16.2709 21.938 18.4028 20.2012 22.7695C18.4644 27.1361 20.5963 32.084 24.963 33.8208C29.3296 35.5577 34.2775 33.4258 36.0144 29.0591Z" fill="#EBEBEB"/>
<path d="M32.4463 26.9698C31.1465 29.5693 28.1138 31.103 28.1138 31.103C28.1138 31.103 25.055 29.565 23.7813 26.9698C22.7112 24.8036 23.387 22.4727 25.081 21.9614C27.5029 21.2292 28.1138 25.4491 28.1138 25.4491C28.1138 25.4491 28.7333 21.2292 31.1465 21.9614C32.8406 22.4727 33.5164 24.8296 32.4463 26.9698Z" fill="white"/>
<path d="M163.544 102.876C167.247 96.8301 165.348 88.927 159.303 85.2236C153.257 81.5203 145.354 83.4191 141.65 89.4648C137.947 95.5105 139.846 103.414 145.892 107.117C151.937 110.82 159.84 108.922 163.544 102.876Z" fill="#EBEBEB"/>
<path d="M158.405 99.5826C155.416 102.767 150.329 103.66 150.329 103.66C150.329 103.66 146.582 100.107 145.854 95.8047C145.252 92.213 147.249 89.1326 149.909 89.1283C153.73 89.1283 152.79 95.4884 152.79 95.4884C152.79 95.4884 155.524 89.6655 158.708 91.7798C160.927 93.2528 160.892 96.9225 158.405 99.5826Z" fill="white"/>
<path fill-rule="evenodd" clip-rule="evenodd" d="M12.5259 74.9567C11.9886 74.6231 11.525 74.1378 10.7929 74.2115C10.5199 74.2375 10.5806 74.0122 10.5762 73.8605C10.5762 71.1744 10.5661 68.4911 10.5459 65.8107C10.5459 65.6115 10.5459 65.4512 10.7669 65.3472C12.8161 64.303 13.6956 62.2668 14.9477 60.5251C15.5888 59.6594 16.0491 58.6736 16.3015 57.6264C16.5538 56.5792 16.5929 55.4919 16.4164 54.4293C16.3255 53.8227 16.6071 53.5628 17.153 53.4284C17.8072 53.2768 18.4527 53.4544 18.6867 53.905C19.2799 54.9996 19.6801 56.1882 19.8694 57.4187C19.9908 58.4368 19.6268 59.429 19.5055 60.4514C19.4145 61.1923 19.2456 61.9202 19.1069 62.6654C19.2889 62.7953 19.4969 62.7303 19.6875 62.7303L26.4938 62.7087C27.447 62.7087 27.9192 62.9816 28.0535 63.6142C28.1224 63.9971 28.0671 64.3919 27.8956 64.7411C27.7241 65.0903 27.4455 65.3755 27.1004 65.5551C26.9314 65.6374 26.6238 65.5551 26.6065 65.8281C26.5892 66.101 26.9011 66.0707 27.0397 66.179C27.8629 66.7379 27.7156 67.912 26.7668 68.5749C26.5415 68.7395 26.0953 68.6659 26.0866 69.0081C26.0779 69.3504 26.5198 69.2724 26.6845 69.4414C27.3517 70.0956 27.0267 71.3174 26.0346 71.8156C25.8995 71.8578 25.7677 71.9099 25.6403 71.9716C25.5277 72.0452 25.4151 72.1319 25.6403 72.2878C26.6238 72.9854 26.6065 73.9602 25.6403 74.6751L25.3457 74.8917C24.9877 75.1065 24.5696 75.1992 24.1543 75.156L13.4833 75.195C13.3159 75.2219 13.1448 75.2147 12.9802 75.1737C12.8157 75.1328 12.6611 75.0589 12.5259 74.9567Z" fill="#EBEBEB"/>
<path fill-rule="evenodd" clip-rule="evenodd" d="M2.40515 70.2559C2.40515 68.5532 2.40515 66.8462 2.40515 65.1392C2.40515 64.7926 2.43548 64.6237 2.8384 64.6237C4.92233 64.6453 6.99761 64.6237 9.07721 64.6237C9.51046 64.6237 9.54945 64.758 9.54945 65.1219C9.54945 68.5532 9.56245 71.986 9.58844 75.4203C9.58844 75.8535 9.47147 75.9792 9.03388 75.9748C7.01494 75.9748 4.99599 75.9748 2.96837 75.9965C2.4658 75.9965 2.39649 75.8318 2.40082 75.3899C2.40515 73.6699 2.40515 71.9629 2.40515 70.2559Z" fill="#EBEBEB"/>
<path fill-rule="evenodd" clip-rule="evenodd" d="M166.607 130.634C166.295 130.439 166.022 130.153 165.602 130.2C165.442 130.2 165.476 130.083 165.472 129.997C165.472 128.42 165.472 126.843 165.472 125.266C165.463 125.212 165.47 125.157 165.493 125.108C165.517 125.059 165.555 125.019 165.602 124.993C166.806 124.382 167.335 123.186 168.059 122.164C168.436 121.655 168.707 121.076 168.855 120.46C169.004 119.845 169.028 119.205 168.925 118.581C168.873 118.225 169.038 118.069 169.358 117.996C169.518 117.939 169.693 117.935 169.855 117.985C170.017 118.035 170.159 118.136 170.259 118.273C170.608 118.917 170.842 119.616 170.953 120.34C170.951 120.936 170.88 121.531 170.74 122.112C170.684 122.545 170.584 122.978 170.506 123.411C170.61 123.485 170.736 123.446 170.849 123.446H174.843C175.406 123.446 175.679 123.602 175.757 123.975C175.802 124.204 175.77 124.442 175.666 124.651C175.561 124.86 175.391 125.029 175.181 125.131C175.082 125.183 174.904 125.131 174.891 125.292C174.878 125.452 175.064 125.435 175.16 125.5C175.64 125.829 175.554 126.509 174.999 126.908C174.865 127.003 174.605 126.96 174.596 127.155C174.588 127.35 174.839 127.311 174.947 127.419C175.034 127.53 175.093 127.659 175.121 127.797C175.149 127.934 175.144 128.077 175.107 128.212C175.07 128.348 175.002 128.473 174.908 128.577C174.814 128.682 174.697 128.763 174.566 128.814C174.486 128.84 174.408 128.87 174.332 128.905C174.267 128.953 174.202 129 174.332 129.091C174.908 129.503 174.9 130.075 174.332 130.495L174.159 130.621C173.95 130.749 173.705 130.804 173.461 130.777C171.37 130.777 169.28 130.784 167.192 130.798C167.088 130.814 166.983 130.807 166.882 130.779C166.781 130.75 166.687 130.701 166.607 130.634Z" fill="#EBEBEB"/>
<path fill-rule="evenodd" clip-rule="evenodd" d="M160.637 127.874C160.637 126.873 160.637 125.868 160.637 124.867C160.637 124.663 160.637 124.564 160.906 124.568C162.127 124.568 163.349 124.568 164.571 124.568C164.809 124.568 164.848 124.646 164.848 124.858C164.848 126.88 164.848 128.902 164.848 130.924C164.848 131.184 164.779 131.253 164.523 131.253C163.336 131.253 162.153 131.253 160.966 131.253C160.672 131.253 160.633 131.154 160.633 130.898C160.654 129.88 160.641 128.875 160.637 127.874Z" fill="#EBEBEB"/>
<path d="M22.4989 122.632H20.9349C20.7011 122.636 20.4687 122.594 20.2518 122.506C20.0349 122.419 19.838 122.288 19.6728 122.123C19.5077 121.957 19.3777 121.76 19.2908 121.543C19.2039 121.326 19.1619 121.093 19.1672 120.86C19.1695 120.391 19.3564 119.943 19.6874 119.612C20.0185 119.281 20.4667 119.094 20.9349 119.092H23.1011L24.1192 113.178H22.1566C21.6878 113.178 21.2382 112.992 20.9067 112.66C20.5752 112.329 20.389 111.879 20.389 111.41C20.389 110.942 20.5752 110.492 20.9067 110.16C21.2382 109.829 21.6878 109.643 22.1566 109.643H24.7561L25.432 105.596C25.4983 105.179 25.7144 104.801 26.0399 104.532C26.3653 104.263 26.7777 104.122 27.1997 104.136C27.4576 104.14 27.7116 104.199 27.9449 104.309C28.1783 104.419 28.3854 104.578 28.5527 104.774C28.72 104.97 28.8434 105.2 28.9149 105.448C28.9864 105.696 29.0043 105.956 28.9673 106.211L28.3608 109.643H33.6854L34.3656 105.596C34.4325 105.173 34.6537 104.79 34.9865 104.52C35.3193 104.25 35.7402 104.114 36.1679 104.136C36.424 104.142 36.676 104.202 36.9069 104.313C37.1377 104.424 37.3421 104.583 37.5063 104.78C37.6705 104.976 37.7907 105.206 37.8588 105.453C37.9268 105.7 37.9412 105.958 37.9009 106.211L37.3204 109.643H38.8931C39.36 109.646 39.8068 109.834 40.1362 110.165C40.4655 110.496 40.651 110.943 40.6521 111.41C40.6454 111.876 40.4582 112.32 40.13 112.65C39.8018 112.98 39.3583 113.169 38.8931 113.178H36.7268L35.7087 119.092H37.641C37.874 119.09 38.1051 119.134 38.3208 119.222C38.5366 119.31 38.7326 119.44 38.8976 119.604C39.0625 119.769 39.1931 119.964 39.2816 120.18C39.37 120.396 39.4147 120.627 39.413 120.86C39.4107 121.329 39.2233 121.778 38.8915 122.11C38.5596 122.442 38.1103 122.629 37.641 122.632H35.0935L34.3786 126.808C34.3124 127.225 34.0962 127.603 33.7707 127.872C33.4453 128.141 33.0329 128.282 32.611 128.268C32.3524 128.269 32.0967 128.214 31.8612 128.107C31.6258 128 31.4162 127.844 31.2468 127.648C31.0774 127.453 30.9521 127.223 30.8794 126.975C30.8068 126.727 30.7886 126.466 30.826 126.21L31.4758 122.64H26.1339L25.4233 126.817C25.3462 127.232 25.1238 127.606 24.7959 127.872C24.468 128.138 24.0561 128.278 23.634 128.268C23.3763 128.273 23.1208 128.22 22.8862 128.113C22.6515 128.006 22.4436 127.849 22.2776 127.652C22.1116 127.455 21.9917 127.223 21.9265 126.973C21.8613 126.724 21.8526 126.463 21.901 126.21L22.4989 122.632ZM32.0564 119.092L33.0789 113.178H27.7716L26.7491 119.092H32.0564Z" fill="#EBEBEB"/>
<path d="M134.026 81.3514H132.778C132.593 81.3526 132.409 81.3168 132.237 81.2462C132.066 81.1756 131.91 81.0715 131.779 80.9401C131.648 80.8086 131.544 80.6524 131.474 80.4806C131.404 80.3087 131.369 80.1246 131.37 79.939C131.373 79.5663 131.522 79.2095 131.785 78.9459C132.049 78.6823 132.406 78.5333 132.778 78.531H134.511L135.326 73.8172H133.749C133.388 73.7972 133.049 73.6399 132.801 73.3777C132.553 73.1154 132.415 72.768 132.415 72.407C132.415 72.0459 132.553 71.6986 132.801 71.4363C133.049 71.174 133.388 71.0167 133.749 70.9968H135.816L136.348 67.7734C136.402 67.4406 136.575 67.1388 136.835 66.9243C137.095 66.7098 137.424 66.5973 137.761 66.6079C137.966 66.6113 138.169 66.6585 138.355 66.7463C138.541 66.8341 138.706 66.9605 138.839 67.1171C138.972 67.2737 139.071 67.4569 139.127 67.6545C139.184 67.852 139.199 68.0595 139.169 68.2629L138.688 70.9968H142.938L143.48 67.7734C143.535 67.4372 143.711 67.1329 143.975 66.918C144.24 66.7032 144.574 66.5929 144.914 66.6079C145.118 66.613 145.319 66.6614 145.503 66.7501C145.687 66.8388 145.85 66.9656 145.981 67.1222C146.112 67.2788 146.208 67.4615 146.263 67.6582C146.319 67.8549 146.331 68.061 146.3 68.2629L145.837 70.9968H147.11C147.483 70.999 147.841 71.1489 148.104 71.4135C148.367 71.6781 148.514 72.0361 148.514 72.4092C148.509 72.7801 148.359 73.1344 148.097 73.3971C147.835 73.6599 147.481 73.8105 147.11 73.8172H145.377L144.541 78.5526H146.084C146.269 78.5509 146.453 78.5861 146.625 78.6562C146.797 78.7263 146.953 78.8299 147.085 78.9609C147.216 79.092 147.32 79.2479 147.391 79.4195C147.461 79.5911 147.497 79.7751 147.496 79.9607C147.495 80.3349 147.346 80.6935 147.081 80.9582C146.816 81.2228 146.458 81.372 146.084 81.3731H144.052L143.484 84.7005C143.428 85.032 143.254 85.3323 142.995 85.5463C142.736 85.7603 142.408 85.8738 142.072 85.8659C141.866 85.8652 141.663 85.8201 141.476 85.7337C141.29 85.6474 141.124 85.5217 140.99 85.3655C140.857 85.2092 140.758 85.0259 140.702 84.8282C140.646 84.6304 140.632 84.4228 140.664 84.2196L141.179 81.3731H136.925L136.353 84.7005C136.295 85.0342 136.118 85.3358 135.855 85.5499C135.593 85.764 135.262 85.8762 134.923 85.8659C134.717 85.8689 134.513 85.8261 134.326 85.7405C134.139 85.6549 133.973 85.5287 133.841 85.3711C133.709 85.2134 133.613 85.0283 133.561 84.8291C133.509 84.63 133.502 84.4217 133.541 84.2196L134.026 81.3514ZM141.643 78.5526L142.457 73.8389H138.229L137.414 78.5526H141.643Z" fill="#EBEBEB"/>
<path d="M89.0546 177.78C138.219 177.78 178.075 172.646 178.075 166.312C178.075 159.978 138.219 154.844 89.0546 154.844C39.8903 154.844 0.034668 159.978 0.034668 166.312C0.034668 172.646 39.8903 177.78 89.0546 177.78Z" fill="#EBEBEB"/>
<path d="M25.7393 103.724C25.2658 105.449 24.9539 107.214 24.8078 108.997C24.8555 109.084 24.8425 109.43 24.8078 109.322C24.8078 109.612 24.3746 109.56 24.3746 109.274C24.3746 109.088 24.3746 108.902 24.3746 108.72C23.3435 107.442 21.8487 106.632 20.64 105.518C19.6646 104.647 18.9557 103.517 18.595 102.26C17.5899 98.794 18.5301 95.1417 17.3256 91.6931C16.2858 88.721 14.4185 86.1345 12.8415 83.4613C11.1735 80.6105 9.94302 77.6168 9.80872 74.2807C9.70907 71.7289 10.0167 68.3235 11.975 66.4086C14.0372 64.3766 16.5934 65.9017 18.1705 67.7083C22.7499 72.9637 24.8685 79.6011 25.7263 86.3944C26.1986 90.1507 26.6882 93.933 26.5928 97.7239C26.5081 99.7474 26.2222 101.758 25.7393 103.724Z" fill="#4472B7"/>
<path d="M24.8251 110.375C25.0757 106.829 25.0337 103.269 24.6994 99.7298C24.7034 99.7171 24.7034 99.7035 24.6994 99.6908C24.7601 96.814 24.9854 93.9459 24.8727 91.0648C24.7418 87.9502 24.3271 84.8541 23.6336 81.8149C23.6336 81.7802 23.5686 81.7889 23.5773 81.8149C24.1377 84.8009 24.4723 87.8249 24.5781 90.8612C24.6388 92.4902 24.6258 94.1163 24.5391 95.7396C24.5131 96.2682 24.4611 96.801 24.4265 97.3339C23.2294 89.2547 20.3098 81.5272 15.8655 74.6749C15.8048 74.584 15.6402 74.6749 15.6965 74.7789C18.8725 79.9865 21.2239 85.654 22.6675 91.5804C20.4579 87.5035 17.1349 84.1501 14.6653 80.2292C14.6653 80.2075 14.6134 80.2292 14.6264 80.2292C16.8403 84.5964 20.5056 88.0277 22.8581 92.3342C23.2654 94.0903 23.5932 95.858 23.8416 97.6372C24.1729 100.079 24.3508 102.539 24.3745 105.002C23.0314 102.498 21.6407 100.098 20.5446 97.4466C20.5142 97.3773 20.4146 97.4466 20.4362 97.4942C21.3721 100.25 22.6242 103.217 24.3832 105.566C24.3832 107.299 24.3341 109.042 24.2358 110.795C23.9629 115.439 23.1701 120.028 22.8018 124.659C22.8028 124.685 22.8129 124.709 22.8303 124.728C22.8477 124.747 22.8713 124.759 22.8969 124.762C22.9224 124.766 22.9483 124.76 22.9697 124.745C22.9912 124.731 23.0069 124.71 23.0141 124.685C23.9414 119.962 24.5464 115.18 24.8251 110.375Z" fill="#263238"/>
<path d="M19.8904 74.532C19.8904 74.4974 19.8254 74.532 19.8384 74.5537C20.7049 76.9019 21.1685 79.2805 21.7794 81.6893C21.786 81.7102 21.8 81.728 21.8187 81.7394C21.8375 81.7508 21.8597 81.7551 21.8814 81.7514C21.903 81.7477 21.9225 81.7363 21.9364 81.7194C21.9503 81.7024 21.9576 81.6809 21.957 81.659C21.7057 79.2198 20.8349 76.7806 19.8904 74.532Z" fill="#263238"/>
<path d="M41.4488 84.3711C40.8818 85.7478 40.2292 87.0877 39.4949 88.383C37.9655 91.1601 36.3712 93.7033 36.0852 96.9354C35.9552 98.3781 35.9076 99.8295 35.47 101.22C35.0672 102.415 34.4921 103.545 33.763 104.574C32.1036 106.987 30.0327 109.066 28.499 111.571C26.9018 114.182 25.7222 117.026 25.0027 120.002C24.9637 120.166 24.708 120.123 24.747 119.958C24.747 119.958 24.747 119.937 24.747 119.924C24.747 119.911 24.747 119.924 24.747 119.889C24.5044 112.957 25.059 105.973 27.1732 99.3312C28.1056 96.4106 29.2272 93.5537 30.5309 90.7789C31.6661 88.3743 33.0741 86.0564 35.0627 84.2585C36.3625 83.0973 39.1526 80.8964 40.9896 82.0619C41.8604 82.6208 41.7954 83.5046 41.4488 84.3711Z" fill="#4472B7"/>
<path d="M34.4648 100.085C33.2434 102.096 31.8977 104.03 30.4356 105.873C29.7641 106.74 29.0839 107.606 28.4167 108.494C28.1004 108.928 27.7451 109.322 27.4548 109.768C27.6368 109.04 27.8144 108.308 28.0007 107.58C28.8932 104.08 29.7337 100.549 31.0855 97.1823C32.4521 93.9226 34.0611 90.7698 35.8989 87.7505C35.9465 87.6682 35.8166 87.6118 35.7689 87.6898C34.3045 90.0987 32.8185 92.5032 31.588 95.0551C30.9071 96.4716 30.3139 97.9286 29.8117 99.4179C30.3757 96.2574 31.1662 93.1415 32.1773 90.0944C32.1773 90.0886 32.175 90.0831 32.1709 90.079C32.1669 90.075 32.1613 90.0727 32.1556 90.0727C32.1499 90.0727 32.1443 90.075 32.1403 90.079C32.1362 90.0831 32.1339 90.0886 32.1339 90.0944C30.8207 93.1673 29.9991 96.4276 29.6991 99.7558C29.4102 100.654 29.1315 101.563 28.8629 102.481C27.7711 106.38 26.8136 110.279 25.9255 114.209C25.9092 111.625 26.1326 109.045 26.5927 106.502C26.5927 106.441 26.519 106.428 26.5017 106.502C25.8261 109.153 25.6006 111.899 25.8345 114.625C25.4965 116.124 25.1687 117.622 24.851 119.118C24.1708 122.311 23.3346 125.565 22.936 128.81C22.9364 128.825 22.942 128.839 22.9518 128.85C22.9617 128.862 22.9751 128.869 22.99 128.872C23.0048 128.875 23.02 128.872 23.0331 128.865C23.0462 128.857 23.0563 128.845 23.0617 128.831C23.5383 127.098 23.8242 125.27 24.2141 123.498C24.604 121.726 25.007 119.95 25.4186 118.178C26.0208 115.6 26.6533 113.026 27.2945 110.457C27.7278 109.517 28.5553 108.681 29.1748 107.888C29.8594 107.021 30.5396 106.155 31.2025 105.288C32.451 103.659 33.5666 101.932 34.5385 100.124C34.5645 100.072 34.5038 100.046 34.4648 100.085Z" fill="#263238"/>
<path d="M34.7768 97.1217C33.2519 99.0681 31.9308 101.166 30.8342 103.382C30.8342 103.412 30.8646 103.443 30.8819 103.412C32.212 101.333 33.516 99.2403 34.8375 97.1607C34.8635 97.1217 34.8028 97.087 34.7768 97.1217Z" fill="#263238"/>
<path d="M5.27245 90.9436C6.16928 92.4903 7.19608 94.3489 6.81049 96.2032C6.56353 97.3817 5.7057 98.3348 5.54973 99.5349C5.20313 102.182 7.84162 103.932 9.74792 105.167C14.5137 108.287 21.0341 111.072 21.9006 117.45C21.9353 117.675 22.3339 117.619 22.2949 117.398C22.2969 117.383 22.2969 117.369 22.2949 117.355C22.2949 117.355 22.3209 117.355 22.3209 117.316C22.9416 114.097 22.9077 110.786 22.2212 107.58C21.5107 104.296 20.0766 101.342 18.3826 98.4561C15.5188 93.5691 12.4861 88.565 8.15356 84.8217C6.95779 83.7863 4.50126 81.9233 3.54811 84.2628C2.62096 86.5461 4.17199 89.0589 5.27245 90.9436Z" fill="#4472B7"/>
<path d="M9.62659 101.303C12.785 104.721 17.802 106.636 20.5185 110.462C19.0011 104.638 16.1336 99.2528 12.1481 94.7432C12.0441 94.6219 12.2088 94.4572 12.3214 94.5655C15.2266 97.3885 17.5507 100.753 19.1624 104.47C18.4099 101.876 17.4238 99.3556 16.2163 96.9398C16.173 96.8488 16.303 96.7665 16.355 96.8574C17.8518 99.4949 18.9236 102.352 19.5307 105.323C23.1093 113.988 23.43 124.152 22.6891 133.281C22.6891 133.411 22.4811 133.415 22.4855 133.281C22.6891 126.085 22.5721 118.763 20.8478 111.735C20.8131 111.588 20.7741 111.445 20.7351 111.302C17.7804 107.182 12.785 105.271 9.57461 101.363C9.54428 101.32 9.59193 101.264 9.62659 101.303Z" fill="#263238"/>
<path d="M8.90305 98.3694C10.5581 99.8901 12.1871 101.441 13.8464 102.962C13.8464 102.962 13.8464 103.005 13.8248 102.992C11.9472 101.731 10.2556 100.213 8.79907 98.4821C8.78414 98.4683 8.77529 98.4491 8.77448 98.4288C8.77366 98.4085 8.78095 98.3887 8.79474 98.3738C8.80853 98.3588 8.82769 98.35 8.848 98.3492C8.86831 98.3484 8.88812 98.3556 8.90305 98.3694Z" fill="#263238"/>
<path d="M8.63442 91.784C10.0995 94.1874 11.757 96.468 13.5908 98.6034C13.6168 98.6294 13.5908 98.6684 13.5475 98.6424C11.4917 96.6869 9.79896 94.3825 8.54777 91.836C8.5443 91.8249 8.54467 91.8129 8.54882 91.802C8.55296 91.7911 8.56065 91.782 8.57065 91.776C8.58065 91.77 8.59237 91.7675 8.60393 91.769C8.6155 91.7704 8.62623 91.7757 8.63442 91.784Z" fill="#263238"/>
<path d="M16.0906 139.723H30.6001L28.6462 120.201H18.3262L16.0906 139.723Z" fill="#455A64"/>
<path d="M17.9624 123.377H28.967L28.6464 120.201H18.3263L17.9624 123.377Z" fill="#263238"/>
<path d="M16.5499 121.154H30.1497V118.039H16.5499V121.154Z" fill="#455A64"/>
<path d="M0 139.723L22.2647 139.619L44.5295 139.58L89.0546 139.507L133.58 139.58L155.845 139.615L178.109 139.723L155.845 139.832L133.58 139.866L89.0546 139.94L44.5295 139.866L22.2647 139.827L0 139.723Z" fill="#263238"/>
<path d="M126.869 0.203613H51.2319C50.2174 0.213239 49.2148 0.422595 48.2813 0.819726C47.3477 1.21686 46.5015 1.79398 45.7911 2.51815C45.0806 3.24232 44.5197 4.09934 44.1404 5.04029C43.7612 5.98123 43.571 6.98767 43.5807 8.00212V163.712C43.5622 165.761 44.3577 167.733 45.7923 169.195C47.227 170.657 49.1835 171.49 51.2319 171.511H126.869C128.918 171.491 130.876 170.659 132.313 169.197C133.749 167.735 134.546 165.762 134.529 163.712V7.99779C134.546 5.9486 133.749 3.97642 132.312 2.51483C130.876 1.05325 128.918 0.221919 126.869 0.203613ZM129.746 158.899C129.746 162.997 126.678 166.312 122.892 166.312H55.2221C51.4268 166.312 48.3594 162.997 48.3594 158.899V13.8987C48.3594 5.54992 51.4268 5.14267 55.2221 5.14267H68.7742C69.5627 5.14267 70.2083 6.0395 70.2083 7.14862V7.62953C70.2083 10.229 71.6293 10.229 73.3796 10.229H104.725C106.489 10.229 107.897 10.229 107.897 7.62953V7.14862C107.897 6.0395 108.534 5.14267 109.335 5.14267H122.892C126.678 5.14267 129.746 6.25612 129.746 13.8987V158.899Z" fill="#263238"/>
<path d="M93.3266 6.98828H84.7786C84.709 6.98886 84.64 6.97559 84.5756 6.94923C84.5112 6.92287 84.4527 6.88395 84.4035 6.83476C84.3543 6.78556 84.3154 6.72706 84.2891 6.66267C84.2627 6.59828 84.2494 6.52929 84.25 6.45972C84.25 6.31953 84.3057 6.18509 84.4048 6.08597C84.504 5.98684 84.6384 5.93115 84.7786 5.93115H93.3266C93.4668 5.93115 93.6012 5.98684 93.7004 6.08597C93.7995 6.18509 93.8552 6.31953 93.8552 6.45972C93.8558 6.52929 93.8425 6.59828 93.8161 6.66267C93.7898 6.72706 93.7509 6.78556 93.7017 6.83476C93.6525 6.88395 93.594 6.92287 93.5296 6.94923C93.4652 6.97559 93.3962 6.98886 93.3266 6.98828Z" fill="white"/>
<path d="M129.75 13.8987V158.899C129.75 162.998 126.678 166.312 122.892 166.312H55.2223C51.427 166.312 48.3596 162.998 48.3596 158.899V13.8987C48.3596 5.54996 51.427 5.1427 55.2223 5.1427H68.7744C69.5629 5.1427 70.2084 6.03953 70.2084 7.14865V7.62956C70.2084 10.2291 71.6295 10.2291 73.3798 10.2291H104.726C106.489 10.2291 107.901 10.2291 107.901 7.62956V7.14865C107.901 6.03953 108.534 5.1427 109.335 5.1427H122.892C126.678 5.1427 129.75 6.25615 129.75 13.8987Z" fill="white"/>
<path d="M129.746 13.8987V36.2458H48.3552V13.8987C48.3552 5.54996 51.427 5.1427 55.2222 5.1427H68.7787C69.5672 5.1427 70.2084 6.03953 70.2084 7.14865V7.62956C70.2084 10.2291 71.6338 10.2291 73.3798 10.2291H104.725C106.489 10.2291 107.901 10.2291 107.901 7.62956V7.14865C107.901 6.03953 108.538 5.1427 109.34 5.1427H122.892C126.678 5.1427 129.746 6.25615 129.746 13.8987Z" fill="#4472B7"/>
<path d="M66.4392 8.40068L66.3049 8.53066C66.2826 8.55732 66.2579 8.58197 66.2313 8.60431C65.8968 8.26979 65.4435 8.0813 64.9705 8.08008C64.7349 8.07875 64.5015 8.12487 64.2842 8.21568C64.0668 8.30649 63.87 8.44013 63.7054 8.60864C63.6846 8.58205 63.6614 8.5574 63.6361 8.53499L63.5061 8.40501C63.5581 8.35302 63.6144 8.30537 63.6707 8.25771C63.7879 8.16104 63.9159 8.07818 64.052 8.01076C64.2121 7.9307 64.3828 7.87381 64.5589 7.84179C64.6456 7.84179 64.7279 7.82013 64.8145 7.80713H65.0355H65.2088C65.3688 7.82512 65.526 7.86296 65.6767 7.91977C65.7846 7.96004 65.889 8.00931 65.9886 8.06708C66.0967 8.12732 66.1983 8.19846 66.2919 8.27937L66.4305 8.40068H66.4392Z" fill="white"/>
<path d="M64.1212 9.01582L63.9263 8.7992C64.0643 8.6606 64.2284 8.55064 64.4091 8.4756C64.5897 8.40056 64.7834 8.36194 64.9791 8.36194C65.1747 8.36194 65.3684 8.40056 65.5491 8.4756C65.7297 8.55064 65.8938 8.6606 66.0319 8.7992L65.8239 9.00716C65.7107 8.89306 65.5756 8.80313 65.4267 8.7428C65.2777 8.68248 65.1181 8.65303 64.9574 8.65622C64.6424 8.6621 64.3422 8.7912 64.1212 9.01582Z" fill="white"/>
<path d="M65.6118 9.23257L65.4038 9.4362C65.2882 9.3226 65.1327 9.25882 64.9706 9.25857C64.8898 9.25806 64.8098 9.27393 64.7353 9.30521C64.6608 9.33648 64.5935 9.38252 64.5373 9.44054L64.3293 9.23257C64.4135 9.14821 64.5134 9.08128 64.6234 9.03561C64.7335 8.98994 64.8514 8.96643 64.9706 8.96643C65.0897 8.96643 65.2077 8.98994 65.3177 9.03561C65.4277 9.08128 65.5277 9.14821 65.6118 9.23257Z" fill="white"/>
<path d="M65.1568 9.61806C65.1568 9.66747 65.1371 9.71485 65.1022 9.74979C65.0673 9.78473 65.0199 9.80436 64.9705 9.80436C64.9211 9.80436 64.8737 9.78473 64.8387 9.74979C64.8038 9.71485 64.7842 9.66747 64.7842 9.61806C64.7842 9.56865 64.8038 9.52127 64.8387 9.48633C64.8737 9.45139 64.9211 9.43176 64.9705 9.43176C65.0199 9.43176 65.0673 9.45139 65.1022 9.48633C65.1371 9.52127 65.1568 9.56865 65.1568 9.61806Z" fill="white"/>
<path d="M54.2042 9.33215C54.5009 9.33215 54.7415 9.09162 54.7415 8.79492C54.7415 8.49822 54.5009 8.25769 54.2042 8.25769C53.9075 8.25769 53.667 8.49822 53.667 8.79492C53.667 9.09162 53.9075 9.33215 54.2042 9.33215Z" fill="white"/>
<path d="M55.3652 8.79924C55.3652 8.69194 55.3971 8.58707 55.4568 8.49792C55.5165 8.40876 55.6013 8.33935 55.7006 8.29849C55.7998 8.25764 55.9089 8.24717 56.0141 8.26842C56.1192 8.28967 56.2157 8.34168 56.2913 8.41785C56.3668 8.49402 56.4181 8.59092 56.4385 8.69626C56.4589 8.8016 56.4475 8.91062 56.4059 9.0095C56.3642 9.10838 56.2941 9.19266 56.2045 9.25164C56.1149 9.31062 56.0098 9.34166 55.9025 9.3408C55.7596 9.33966 55.6229 9.28209 55.5223 9.18065C55.4217 9.07921 55.3652 8.94212 55.3652 8.79924Z" fill="white"/>
<path d="M57.6051 9.33215C57.9018 9.33215 58.1423 9.09162 58.1423 8.79492C58.1423 8.49822 57.9018 8.25769 57.6051 8.25769C57.3084 8.25769 57.0679 8.49822 57.0679 8.79492C57.0679 9.09162 57.3084 9.33215 57.6051 9.33215Z" fill="white"/>
<path d="M58.762 8.79925C58.762 8.69214 58.7937 8.58744 58.8532 8.49838C58.9127 8.40932 58.9973 8.33991 59.0963 8.29892C59.1952 8.25793 59.3041 8.2472 59.4092 8.2681C59.5142 8.28899 59.6107 8.34057 59.6865 8.41631C59.7622 8.49205 59.8138 8.58855 59.8347 8.6936C59.8556 8.79865 59.8449 8.90754 59.8039 9.0065C59.7629 9.10546 59.6935 9.19004 59.6044 9.24955C59.5153 9.30905 59.4106 9.34082 59.3035 9.34082C59.1599 9.34082 59.0221 9.28376 58.9206 9.1822C58.819 9.08063 58.762 8.94289 58.762 8.79925Z" fill="white"/>
<path d="M60.4602 8.79925C60.4602 8.69214 60.492 8.58744 60.5515 8.49838C60.611 8.40932 60.6956 8.33991 60.7945 8.29892C60.8935 8.25793 61.0024 8.2472 61.1074 8.2681C61.2125 8.28899 61.309 8.34057 61.3847 8.41631C61.4604 8.49205 61.512 8.58855 61.5329 8.6936C61.5538 8.79865 61.5431 8.90754 61.5021 9.0065C61.4611 9.10546 61.3917 9.19004 61.3026 9.24955C61.2136 9.30905 61.1089 9.34082 61.0018 9.34082C60.8581 9.34082 60.7204 9.28376 60.6188 9.1822C60.5173 9.08063 60.4602 8.94289 60.4602 8.79925Z" fill="white"/>
<path d="M123.637 9.96902H119.252V7.93274H123.637V9.96902ZM119.469 9.75239H123.42V8.16236H119.469V9.75239Z" fill="white"/>
<path d="M122.446 8.28369H119.616V9.62677H122.446V8.28369Z" fill="white"/>
<path d="M124.035 8.4137H123.646V9.50116H124.035V8.4137Z" fill="white"/>
<path d="M100.272 96.2336H71.1011V100.41H100.272V96.2336Z" fill="#4472B7"/>
<path d="M106.9 96.2336H102.724V100.41H106.9V96.2336Z" fill="#DBDBDB"/>
<path d="M103.972 98.3218C103.972 98.3733 103.957 98.4235 103.928 98.4663C103.899 98.509 103.859 98.5423 103.811 98.562C103.764 98.5817 103.712 98.5868 103.661 98.5768C103.611 98.5668 103.564 98.542 103.528 98.5057C103.492 98.4693 103.467 98.423 103.457 98.3725C103.447 98.3221 103.452 98.2699 103.472 98.2224C103.491 98.1749 103.525 98.1343 103.567 98.1057C103.61 98.0771 103.66 98.0619 103.712 98.0619C103.746 98.0619 103.78 98.0686 103.811 98.0817C103.843 98.0947 103.872 98.1139 103.896 98.138C103.92 98.1622 103.939 98.1908 103.952 98.2224C103.965 98.2539 103.972 98.2877 103.972 98.3218Z" fill="#263238"/>
<path d="M105.085 98.3218C105.085 98.3733 105.07 98.4235 105.041 98.4663C105.013 98.509 104.972 98.5423 104.925 98.562C104.877 98.5817 104.825 98.5868 104.774 98.5768C104.724 98.5668 104.678 98.542 104.641 98.5057C104.605 98.4693 104.58 98.423 104.57 98.3725C104.56 98.3221 104.565 98.2699 104.585 98.2224C104.605 98.1749 104.638 98.1343 104.681 98.1057C104.723 98.0771 104.774 98.0619 104.825 98.0619C104.859 98.0619 104.893 98.0686 104.925 98.0817C104.956 98.0947 104.985 98.1139 105.009 98.138C105.033 98.1622 105.052 98.1908 105.065 98.2224C105.078 98.2539 105.085 98.2877 105.085 98.3218Z" fill="#263238"/>
<path d="M106.168 98.3218C106.168 98.3733 106.153 98.4235 106.125 98.4663C106.096 98.509 106.055 98.5423 106.008 98.562C105.96 98.5817 105.908 98.5868 105.858 98.5768C105.807 98.5668 105.761 98.542 105.725 98.5057C105.688 98.4693 105.663 98.423 105.653 98.3725C105.643 98.3221 105.649 98.2699 105.668 98.2224C105.688 98.1749 105.721 98.1343 105.764 98.1057C105.807 98.0771 105.857 98.0619 105.908 98.0619C105.943 98.0619 105.976 98.0686 106.008 98.0817C106.039 98.0947 106.068 98.1139 106.092 98.138C106.116 98.1622 106.135 98.1908 106.149 98.2224C106.162 98.2539 106.168 98.2877 106.168 98.3218Z" fill="#263238"/>
<path d="M54.3688 21.3982L52.4668 19.6132L54.3688 17.8325L54.6677 18.1445L53.095 19.6132L54.6677 21.0862L54.3688 21.3982Z" fill="white"/>
<path d="M125.158 18.8767C125.364 18.8767 125.53 18.7098 125.53 18.5041C125.53 18.2983 125.364 18.1315 125.158 18.1315C124.952 18.1315 124.785 18.2983 124.785 18.5041C124.785 18.7098 124.952 18.8767 125.158 18.8767Z" fill="white"/>
<path d="M125.158 20.2067C125.364 20.2067 125.53 20.0399 125.53 19.8341C125.53 19.6284 125.364 19.4615 125.158 19.4615C124.952 19.4615 124.785 19.6284 124.785 19.8341C124.785 20.0399 124.952 20.2067 125.158 20.2067Z" fill="white"/>
<path d="M125.534 21.1686C125.54 21.2212 125.535 21.2744 125.518 21.3248C125.502 21.3751 125.475 21.4215 125.44 21.4608C125.405 21.5002 125.361 21.5317 125.313 21.5532C125.265 21.5748 125.213 21.5859 125.16 21.5859C125.107 21.5859 125.054 21.5748 125.006 21.5532C124.958 21.5317 124.915 21.5002 124.879 21.4608C124.844 21.4215 124.817 21.3751 124.801 21.3248C124.785 21.2744 124.779 21.2212 124.785 21.1686C124.795 21.0762 124.839 20.9907 124.908 20.9285C124.977 20.8664 125.067 20.832 125.16 20.832C125.253 20.832 125.342 20.8664 125.411 20.9285C125.481 20.9907 125.524 21.0762 125.534 21.1686Z" fill="white"/>
<path d="M59.3426 111.046C58.8756 111.336 58.3289 111.471 57.7808 111.43C57.2327 111.39 56.7115 111.177 56.2921 110.822C55.8727 110.466 55.5766 109.988 55.4464 109.454C55.3161 108.92 55.3585 108.358 55.5673 107.85C55.7761 107.342 56.1406 106.913 56.6086 106.624C57.0765 106.336 57.6237 106.204 58.1717 106.246C58.7196 106.288 59.2401 106.503 59.6583 106.859C60.0765 107.216 60.3709 107.696 60.4994 108.23C60.6271 108.762 60.584 109.32 60.3764 109.825C60.1687 110.331 59.807 110.758 59.3426 111.046Z" fill="#DBDBDB"/>
<path d="M58.7706 108.555C58.7706 108.711 58.7244 108.864 58.6377 108.993C58.5511 109.123 58.428 109.224 58.2839 109.284C58.1398 109.343 57.9812 109.359 57.8283 109.329C57.6753 109.298 57.5348 109.223 57.4246 109.113C57.3143 109.003 57.2392 108.862 57.2088 108.709C57.1783 108.556 57.1939 108.398 57.2536 108.253C57.3133 108.109 57.4144 107.986 57.544 107.9C57.6737 107.813 57.8262 107.767 57.9821 107.767C58.1912 107.767 58.3918 107.85 58.5397 107.998C58.6876 108.146 58.7706 108.346 58.7706 108.555Z" fill="white"/>
<path d="M59.3426 110.73V111.046C58.9328 111.299 58.4611 111.432 57.98 111.432C57.4989 111.432 57.0272 111.299 56.6174 111.046V110.721C56.6371 110.373 56.7892 110.046 57.0426 109.807C57.2959 109.567 57.6314 109.434 57.98 109.434C58.3286 109.434 58.6641 109.567 58.9174 109.807C59.1708 110.046 59.3229 110.373 59.3426 110.721V110.73Z" fill="white"/>
<path d="M121.549 107.147C121.594 107.148 121.638 107.167 121.67 107.199C121.702 107.231 121.721 107.275 121.722 107.32C121.722 107.366 121.704 107.41 121.671 107.443C121.639 107.475 121.595 107.494 121.549 107.494C121.526 107.494 121.504 107.489 121.483 107.48C121.462 107.472 121.443 107.459 121.428 107.443C121.412 107.427 121.4 107.407 121.391 107.386C121.383 107.365 121.379 107.343 121.38 107.32C121.38 107.275 121.397 107.232 121.429 107.199C121.46 107.167 121.503 107.148 121.549 107.147Z" fill="black"/>
<path d="M122.064 107.147C122.11 107.148 122.153 107.167 122.185 107.199C122.218 107.231 122.236 107.275 122.237 107.32C122.237 107.366 122.219 107.41 122.187 107.443C122.154 107.475 122.11 107.494 122.064 107.494C122.041 107.494 122.019 107.489 121.998 107.48C121.978 107.472 121.959 107.459 121.943 107.443C121.927 107.427 121.915 107.407 121.907 107.386C121.898 107.365 121.894 107.343 121.895 107.32C121.895 107.275 121.913 107.232 121.944 107.199C121.976 107.167 122.019 107.148 122.064 107.147Z" fill="black"/>
<path d="M122.593 107.147C122.638 107.148 122.682 107.167 122.714 107.199C122.746 107.231 122.765 107.275 122.766 107.32C122.77 107.345 122.769 107.37 122.762 107.395C122.755 107.419 122.743 107.441 122.727 107.46C122.711 107.479 122.69 107.495 122.668 107.505C122.645 107.516 122.62 107.521 122.595 107.521C122.57 107.521 122.545 107.516 122.522 107.505C122.5 107.495 122.479 107.479 122.463 107.46C122.447 107.441 122.435 107.419 122.428 107.395C122.421 107.37 122.42 107.345 122.424 107.32C122.425 107.275 122.443 107.233 122.474 107.201C122.506 107.168 122.548 107.149 122.593 107.147Z" fill="black"/>
<path d="M55.699 114.313L64.1127 114.235L71.0707 114.187L84.9867 114.153L91.6154 114.187L98.5691 114.235L105.527 114.313L98.5691 114.391L91.6154 114.434L84.9867 114.473L71.0707 114.434L64.1127 114.391L55.699 114.313Z" fill="#263238"/>
<path d="M55.6946 115.786C59.6198 115.721 65.2261 115.691 69.173 115.665L80.9531 115.626L92.7375 115.665L96.0389 115.786L92.7375 115.912L80.9531 115.946L69.173 115.912C65.2478 115.886 59.6242 115.855 55.6946 115.786Z" fill="#263238"/>
<path d="M55.6946 117.489C59.9751 117.424 66.0926 117.393 70.3818 117.367L83.2233 117.328L96.0605 117.367L99.6608 117.489L96.0605 117.614L83.2233 117.653L70.3818 117.614C66.0926 117.588 59.9794 117.545 55.6946 117.489Z" fill="#263238"/>
<path d="M78.3406 106.87H62.7393V108.555H78.3406V106.87Z" fill="#455A64"/>
<path d="M75.1865 109.396H62.7393V110.414H75.1865V109.396Z" fill="#DBDBDB"/>
<path d="M55.387 121.011L63.7964 120.955L72.2014 120.937L89.0115 120.903L105.822 120.937L114.231 120.955L122.636 121.011L114.231 121.063L105.822 121.08L89.0115 121.119L72.2014 121.08L63.7964 121.063L55.387 121.011Z" fill="#DBDBDB"/>
<path d="M59.3426 129.351C58.8758 129.641 58.3292 129.775 57.7813 129.734C57.2334 129.694 56.7125 129.481 56.2932 129.126C55.8739 128.771 55.5779 128.292 55.4475 127.759C55.3172 127.225 55.3593 126.664 55.5677 126.156C55.7762 125.647 56.1403 125.218 56.6078 124.93C57.0753 124.641 57.6222 124.508 58.17 124.55C58.7178 124.592 59.2383 124.806 59.6568 125.162C60.0753 125.518 60.3703 125.997 60.4994 126.531C60.6281 127.063 60.5856 127.622 60.3779 128.128C60.1702 128.635 59.8079 129.063 59.3426 129.351Z" fill="#DBDBDB"/>
<path d="M58.7706 126.851C58.7706 127.007 58.7244 127.16 58.6377 127.289C58.5511 127.419 58.428 127.52 58.2839 127.58C58.1398 127.64 57.9812 127.655 57.8283 127.625C57.6753 127.594 57.5348 127.519 57.4246 127.409C57.3143 127.299 57.2392 127.158 57.2088 127.005C57.1783 126.852 57.1939 126.694 57.2536 126.55C57.3133 126.406 57.4144 126.282 57.544 126.196C57.6737 126.109 57.8262 126.063 57.9821 126.063C58.1909 126.064 58.3908 126.147 58.5384 126.295C58.6861 126.443 58.7695 126.643 58.7706 126.851Z" fill="white"/>
<path d="M59.3425 129.026V129.351C58.9328 129.603 58.4611 129.737 57.98 129.737C57.4988 129.737 57.0271 129.603 56.6174 129.351V129.026C56.6069 128.841 56.6344 128.655 56.6982 128.481C56.7619 128.307 56.8606 128.147 56.9882 128.012C57.1157 127.877 57.2695 127.77 57.44 127.696C57.6105 127.623 57.7943 127.585 57.98 127.585C58.1657 127.585 58.3494 127.623 58.5199 127.696C58.6905 127.77 58.8442 127.877 58.9718 128.012C59.0993 128.147 59.198 128.307 59.2618 128.481C59.3255 128.655 59.353 128.841 59.3425 129.026Z" fill="white"/>
<path d="M121.549 125.448C121.595 125.448 121.639 125.466 121.671 125.498C121.704 125.531 121.722 125.575 121.722 125.621C121.722 125.644 121.717 125.666 121.709 125.687C121.7 125.707 121.687 125.726 121.671 125.742C121.655 125.758 121.636 125.77 121.615 125.778C121.594 125.787 121.571 125.79 121.549 125.79C121.526 125.79 121.504 125.787 121.483 125.778C121.463 125.77 121.444 125.758 121.428 125.742C121.412 125.726 121.4 125.707 121.391 125.686C121.383 125.666 121.379 125.643 121.38 125.621C121.379 125.598 121.383 125.576 121.391 125.555C121.4 125.534 121.412 125.515 121.428 125.499C121.443 125.482 121.462 125.47 121.483 125.461C121.504 125.452 121.526 125.448 121.549 125.448Z" fill="black"/>
<path d="M122.064 125.448C122.11 125.448 122.154 125.466 122.187 125.498C122.219 125.531 122.237 125.575 122.237 125.621C122.237 125.644 122.233 125.666 122.224 125.687C122.215 125.707 122.202 125.726 122.186 125.742C122.17 125.758 122.151 125.77 122.13 125.778C122.109 125.787 122.087 125.79 122.064 125.79C122.042 125.79 122.019 125.787 121.999 125.778C121.978 125.77 121.959 125.758 121.943 125.742C121.927 125.726 121.915 125.707 121.907 125.686C121.898 125.666 121.894 125.643 121.895 125.621C121.894 125.598 121.898 125.576 121.907 125.555C121.915 125.534 121.927 125.515 121.943 125.499C121.959 125.482 121.978 125.47 121.998 125.461C122.019 125.452 122.041 125.448 122.064 125.448Z" fill="black"/>
<path d="M122.593 125.448C122.639 125.448 122.683 125.466 122.715 125.498C122.748 125.531 122.766 125.575 122.766 125.621C122.76 125.662 122.739 125.699 122.707 125.725C122.676 125.752 122.636 125.767 122.595 125.767C122.554 125.767 122.514 125.752 122.482 125.725C122.451 125.699 122.43 125.662 122.424 125.621C122.424 125.576 122.441 125.532 122.473 125.5C122.505 125.468 122.548 125.449 122.593 125.448Z" fill="black"/>
<path d="M55.699 132.605L64.1127 132.527L71.0707 132.484L84.9867 132.445L91.6154 132.484L98.5691 132.527L105.527 132.605L98.5691 132.687L91.6154 132.731L84.9867 132.77L71.0707 132.731L64.1127 132.683L55.699 132.605Z" fill="#263238"/>
<path d="M55.6946 134.082C59.6198 134.017 65.2261 133.983 69.173 133.957L80.9531 133.922L92.7375 133.957L96.0389 134.082L92.7375 134.208L80.9531 134.243L69.173 134.204C65.2478 134.178 59.6242 134.147 55.6946 134.082Z" fill="#263238"/>
<path d="M78.3406 125.166H62.7393V126.851H78.3406V125.166Z" fill="#455A64"/>
<path d="M75.1865 127.692H62.7393V128.71H75.1865V127.692Z" fill="#DBDBDB"/>
<path d="M55.387 138.436L63.7964 138.384L72.2014 138.367L89.0115 138.328L105.822 138.367L114.231 138.384L122.636 138.436L114.231 138.493L105.822 138.51L89.0115 138.545L72.2014 138.51L63.7964 138.488L55.387 138.436Z" fill="#DBDBDB"/>
<path d="M59.3426 147.383C58.8756 147.673 58.3289 147.807 57.7808 147.767C57.2327 147.727 56.7115 147.513 56.2921 147.158C55.8727 146.803 55.5766 146.324 55.4464 145.79C55.3161 145.257 55.3585 144.695 55.5673 144.187C55.7761 143.678 56.1406 143.249 56.6086 142.961C57.0765 142.673 57.6237 142.54 58.1717 142.583C58.7196 142.625 59.2401 142.84 59.6583 143.196C60.0765 143.553 60.3709 144.033 60.4994 144.567C60.6271 145.098 60.584 145.657 60.3764 146.162C60.1687 146.668 59.807 147.095 59.3426 147.383Z" fill="#DBDBDB"/>
<path d="M58.7706 144.883C58.7706 145.039 58.7244 145.192 58.6377 145.321C58.5511 145.451 58.428 145.552 58.2839 145.612C58.1398 145.671 57.9812 145.687 57.8283 145.657C57.6753 145.626 57.5348 145.551 57.4246 145.441C57.3143 145.331 57.2392 145.19 57.2088 145.037C57.1783 144.884 57.1939 144.726 57.2536 144.581C57.3133 144.437 57.4144 144.314 57.544 144.228C57.6737 144.141 57.8262 144.095 57.9821 144.095C58.1912 144.095 58.3918 144.178 58.5397 144.326C58.6876 144.474 58.7706 144.674 58.7706 144.883Z" fill="white"/>
<path d="M59.3426 147.058V147.383C58.9342 147.639 58.462 147.775 57.98 147.775C57.498 147.775 57.0258 147.639 56.6174 147.383V147.058C56.6371 146.71 56.7892 146.383 57.0426 146.143C57.2959 145.904 57.6314 145.77 57.98 145.77C58.3286 145.77 58.6641 145.904 58.9174 146.143C59.1708 146.383 59.3229 146.71 59.3426 147.058Z" fill="white"/>
<path d="M121.549 143.484C121.573 143.48 121.599 143.481 121.623 143.488C121.647 143.495 121.669 143.507 121.688 143.523C121.707 143.539 121.723 143.56 121.733 143.582C121.744 143.605 121.749 143.63 121.749 143.655C121.749 143.68 121.744 143.705 121.733 143.728C121.723 143.75 121.707 143.771 121.688 143.787C121.669 143.803 121.647 143.815 121.623 143.822C121.599 143.829 121.573 143.83 121.549 143.826C121.508 143.82 121.471 143.799 121.444 143.767C121.417 143.736 121.403 143.696 121.403 143.655C121.403 143.614 121.417 143.574 121.444 143.543C121.471 143.511 121.508 143.49 121.549 143.484Z" fill="black"/>
<path d="M122.064 143.484C122.089 143.48 122.114 143.481 122.138 143.488C122.163 143.495 122.185 143.507 122.204 143.523C122.223 143.539 122.238 143.56 122.249 143.582C122.259 143.605 122.265 143.63 122.265 143.655C122.265 143.68 122.259 143.705 122.249 143.728C122.238 143.75 122.223 143.771 122.204 143.787C122.185 143.803 122.163 143.815 122.138 143.822C122.114 143.829 122.089 143.83 122.064 143.826C122.023 143.82 121.986 143.799 121.96 143.767C121.933 143.736 121.918 143.696 121.918 143.655C121.918 143.614 121.933 143.574 121.96 143.543C121.986 143.511 122.023 143.49 122.064 143.484Z" fill="black"/>
<path d="M122.593 143.484C122.618 143.48 122.643 143.481 122.667 143.488C122.691 143.495 122.713 143.507 122.733 143.523C122.752 143.539 122.767 143.56 122.777 143.582C122.788 143.605 122.793 143.63 122.793 143.655C122.793 143.68 122.788 143.705 122.777 143.728C122.767 143.75 122.752 143.771 122.733 143.787C122.713 143.803 122.691 143.815 122.667 143.822C122.643 143.829 122.618 143.83 122.593 143.826C122.552 143.82 122.515 143.799 122.488 143.767C122.461 143.736 122.447 143.696 122.447 143.655C122.447 143.614 122.461 143.574 122.488 143.543C122.515 143.511 122.552 143.49 122.593 143.484Z" fill="black"/>
<path d="M71.0144 150.641L76.8416 150.563L81.6637 150.52L91.2992 150.481L95.8916 150.516L100.709 150.563L105.527 150.641L100.709 150.719L95.8916 150.767L91.2992 150.801L81.6637 150.767L76.8416 150.719L71.0144 150.641Z" fill="#263238"/>
<path d="M71.0144 152.114C73.7352 152.049 77.6301 152.019 80.351 151.993L88.5091 151.954L96.6715 151.993L98.9591 152.114L96.6715 152.24L88.5091 152.279L80.351 152.24C77.6301 152.205 73.7352 152.205 71.0144 152.114Z" fill="#263238"/>
<path d="M78.3406 143.198H62.7393V144.883H78.3406V143.198Z" fill="#455A64"/>
<path d="M75.1865 145.728H62.7393V146.746H75.1865V145.728Z" fill="#DBDBDB"/>
<path d="M55.3868 160.862H68.8999V150.481H55.3868V160.862Z" fill="#4472B7"/>
<path opacity="0.2" d="M56.8426 152.916C56.7929 153.169 56.8259 153.432 56.937 153.665C57.048 153.899 57.2311 154.09 57.4593 154.211C57.6875 154.332 57.9485 154.377 58.204 154.339C58.4595 154.3 58.6958 154.18 58.8781 153.997C59.0604 153.814 59.179 153.577 59.2163 153.322C59.2536 153.066 59.2078 152.805 59.0855 152.578C58.9632 152.35 58.771 152.168 58.5372 152.058C58.3034 151.948 58.0404 151.916 57.7871 151.967C57.5535 152.014 57.339 152.129 57.1709 152.298C57.0028 152.467 56.8885 152.682 56.8426 152.916Z" fill="black"/>
<path opacity="0.2" d="M59.1345 158.669H68.9L64.0173 153.197L59.1345 158.669Z" fill="black"/>
<path d="M55.387 158.674H63.4498L59.4205 155.108L55.387 158.674Z" fill="#4472B7"/>
<path opacity="0.3" d="M55.387 158.674H63.4498L59.4205 155.108L55.387 158.674Z" fill="black"/>
<path d="M68.9044 158.669H55.3914V160.862H68.9044V158.669Z" fill="#4472B7"/>
<path opacity="0.3" d="M68.9044 158.669H55.3914V160.862H68.9044V158.669Z" fill="black"/>
<path d="M102.88 79.9086C98.7227 82.4757 93.9335 83.8352 89.048 83.8352C84.1625 83.8352 79.3733 82.4757 75.2165 79.9086C70.3493 76.8995 66.5961 72.3852 64.5263 67.0504C62.4565 61.7155 62.1829 55.8512 63.747 50.3468C65.3112 44.8425 68.6277 39.9983 73.1936 36.5491C77.7595 33.0999 83.3257 31.2338 89.048 31.2338C94.7703 31.2338 100.337 33.0999 104.902 36.5491C109.468 39.9983 112.785 44.8425 114.349 50.3468C115.913 55.8512 115.64 61.7155 113.57 67.0504C111.5 72.3852 107.747 76.8995 102.88 79.9086Z" fill="#A6A6A6"/>
<path d="M87.9844 51.4615C97.7412 57.202 110.513 60.928 113.685 58.922C116.856 56.9161 121.917 40.6995 121.518 36.8479C121.353 35.1842 110.05 34.2961 108.923 35.6781C107.797 37.0602 106.592 46.895 105.982 47.8092C105.548 48.4677 95.5619 46.8777 89.3145 46.2495C85.3285 45.8422 82.8374 48.433 87.9844 51.4615Z" fill="#AD6359"/>
<path d="M121.392 39.0445C121.778 37.3808 123.125 28.7764 122.935 26.5452C122.744 24.314 121.769 17.9322 120.049 17.8802C118.329 17.8282 118.463 19.7345 118.463 19.7345C118.463 19.7345 117.623 17.1047 115.886 17.2303C114.148 17.356 114.46 20.2631 114.46 20.2631C114.46 20.2631 113.399 17.6289 111.674 17.8715C109.95 18.1141 110.76 21.0169 110.76 21.0169C110.76 21.0169 109.894 18.5604 108.568 19.3619C106.961 20.3237 109.053 24.6736 109.071 27.1604C109.071 27.7236 108.321 38.5679 108.321 38.5679L121.392 39.0445Z" fill="#AD6359"/>
<path d="M110.717 20.809C112.251 24.0107 112.368 25.6744 111.96 29.1447C111.96 29.214 112.051 29.24 112.064 29.1707C112.775 25.8087 112.931 23.6988 110.869 20.7267C110.747 20.5794 110.622 20.653 110.717 20.809Z" fill="#263238"/>
<path d="M114.335 20.0638C115.634 23.5298 115.777 25.3365 115.634 29.0017C115.634 29.0144 115.639 29.0265 115.648 29.0354C115.657 29.0444 115.669 29.0494 115.682 29.0494C115.695 29.0494 115.707 29.0444 115.716 29.0354C115.725 29.0265 115.73 29.0144 115.73 29.0017C116.185 25.4188 116.293 23.3088 114.538 20.0161C114.439 19.8645 114.274 19.8948 114.335 20.0638Z" fill="#263238"/>
<path d="M118.451 19.9381C119.469 23.4041 119.711 25.358 119.096 28.8977C119.092 28.9149 119.095 28.933 119.104 28.9481C119.114 28.9631 119.129 28.9738 119.146 28.9778C119.163 28.9818 119.181 28.9789 119.196 28.9695C119.211 28.9602 119.222 28.9452 119.226 28.928C120.201 25.3797 119.919 22.9145 118.559 19.9207C118.468 19.7128 118.386 19.7214 118.451 19.9381Z" fill="#263238"/>
<path d="M108.022 40.8121C108.022 40.8121 105.392 37.2248 104.586 35.3921C103.781 33.5595 103.287 25.631 104.989 25.4274C107.195 25.1631 108.382 29.6819 108.672 31.9738C108.672 31.9738 113.771 31.3586 115.327 34.4216C116.882 37.4847 108.022 40.8121 108.022 40.8121Z" fill="#AD6359"/>
<path d="M105.618 25.553C107.784 26.7618 107.992 29.7946 108.442 31.9955C108.448 32.0279 108.461 32.0585 108.481 32.0848C108.501 32.1111 108.527 32.1323 108.556 32.1467C108.586 32.161 108.619 32.1682 108.651 32.1675C108.684 32.1668 108.717 32.1584 108.746 32.1428C110.912 32.0258 113.971 32.4894 115.37 34.309C115.378 34.3189 115.39 34.3255 115.402 34.3274C115.415 34.3294 115.428 34.3266 115.439 34.3197C115.449 34.3127 115.457 34.302 115.46 34.2896C115.464 34.2773 115.462 34.2641 115.457 34.2527C114.218 32.1211 111.237 31.4193 108.889 31.6965C108.455 29.4306 108.135 26.3979 105.631 25.553C105.613 25.527 105.605 25.5444 105.618 25.553Z" fill="#263238"/>
<path d="M103.092 60.1178L105.756 47.1202C105.756 47.1202 95.6095 45.4436 89.3837 45.5432C83.1579 45.6429 81.1 48.0431 88.9158 52.7135C93.4866 55.4667 98.2207 57.9393 103.092 60.1178Z" fill="#FAAC44"/>
<path d="M103.239 47.3196C102.713 49.1075 102.234 50.9098 101.801 52.7265C101.588 53.619 101.367 54.5115 101.164 55.4127C100.96 56.3139 100.821 57.2843 100.614 58.2115C100.614 58.2765 100.7 58.3068 100.718 58.2418C100.947 57.3537 101.237 56.4785 101.476 55.5903C101.714 54.7022 101.909 53.749 102.147 52.8305C102.583 51.0109 102.975 49.1811 103.321 47.3412C103.322 47.3312 103.319 47.3212 103.313 47.313C103.307 47.3048 103.299 47.2989 103.289 47.2963C103.279 47.2938 103.269 47.2947 103.26 47.2989C103.251 47.3032 103.243 47.3105 103.239 47.3196Z" fill="#263238"/>
<path d="M100.83 81.0221C99.1668 81.8645 97.4162 82.5227 95.6097 82.9847L95.2371 83.0801C95.0031 83.1407 94.7605 83.1927 94.5265 83.2447C90.8649 84.0399 87.0753 84.0399 83.4137 83.2447C83.0584 83.1667 82.7031 83.0801 82.3522 82.9847C80.2454 82.4361 78.2162 81.6238 76.3127 80.5672C76.161 80.4892 76.0137 80.4069 75.8794 80.3159C75.6455 80.1816 75.4115 80.0387 75.1732 79.8827C74.2006 79.2801 73.2685 78.6144 72.3831 77.8897C72.2748 77.8117 72.1708 77.7251 72.0668 77.6341C71.1784 76.8859 70.3404 76.0797 69.5583 75.2209L69.3244 74.9653C68.8824 74.4656 68.4593 73.95 68.0549 73.4186C68.1243 73.1326 68.1979 72.8467 68.2672 72.5521C68.2932 72.4698 68.3105 72.3831 68.3322 72.3008C68.5358 71.5123 68.7655 70.7108 68.9821 69.8833C69.0037 69.7966 69.0341 69.7143 69.0557 69.6233C69.281 68.8391 69.5193 68.0289 69.7836 67.2188C69.8038 67.1321 69.8298 67.0455 69.8616 66.9588C70.1172 66.166 70.3858 65.3558 70.6718 64.5413C70.6978 64.4633 70.7324 64.3766 70.7627 64.29C71.0487 63.4928 71.3433 62.687 71.6596 61.8768C71.6899 61.7988 71.7202 61.7165 71.7549 61.6342C72.0712 60.8283 72.4091 60.0311 72.76 59.2253C72.7947 59.1343 72.8337 59.052 72.8727 58.9653C73.2323 58.1552 73.6092 57.3537 74.0035 56.5521C74.0381 56.4742 74.0771 56.3918 74.1161 56.3182C74.5205 55.5037 74.9436 54.6993 75.3855 53.905C75.4031 53.8661 75.4234 53.8285 75.4462 53.7923L75.5328 53.6407C75.9921 52.8262 76.473 52.0203 76.9799 51.2362C77.0319 51.1495 77.0882 51.0629 77.1445 50.9762C77.6774 50.153 78.2407 49.3472 78.8255 48.5673C78.8668 48.5028 78.9116 48.4406 78.9598 48.381L79.0162 48.3117C79.5317 47.6272 80.0733 46.9556 80.6322 46.3144C80.7664 46.1602 80.9112 46.0154 81.0654 45.8812L81.1304 45.8292C81.2084 45.7685 81.2821 45.7122 81.3687 45.6559C81.3829 45.6433 81.399 45.6331 81.4164 45.6256C84.0679 43.8579 89.1196 44.5684 89.7651 45.5086C89.7941 45.5455 89.8201 45.5846 89.8431 45.6256L89.9298 45.7512C90.4644 46.5712 90.9504 47.4218 91.3855 48.2987C91.8187 49.1219 92.2087 50.0317 92.6072 50.9632C92.9668 51.8081 93.3134 52.6962 93.6557 53.619C93.6557 53.6667 93.6904 53.71 93.7034 53.7533C93.7237 53.7949 93.7397 53.8385 93.751 53.8833C94.0716 54.7498 94.3836 55.6163 94.6912 56.5435C94.9511 57.3363 95.2154 58.1422 95.4624 58.9567C95.4884 59.0477 95.5187 59.1256 95.5447 59.2166C95.8046 60.0528 96.0602 60.902 96.3029 61.7511C96.3118 61.7951 96.3234 61.8385 96.3375 61.8811C96.5758 62.687 96.7968 63.4928 97.0177 64.2943C97.0177 64.368 97.0481 64.433 97.0697 64.5023C97.295 65.3298 97.503 66.153 97.7153 66.9632L97.7846 67.2231C97.9925 68.0333 98.1918 68.8391 98.3825 69.6276C98.3825 69.6536 98.3825 69.6753 98.3825 69.697C98.3825 69.7186 98.4128 69.8226 98.4258 69.8876C98.6251 70.7108 98.8157 71.5166 98.9977 72.3051C99.2056 73.2236 99.4049 74.1161 99.5869 74.9696C99.6086 75.0606 99.6259 75.1429 99.6432 75.2252C99.8295 76.0917 100.007 76.9236 100.167 77.7121C100.167 77.7727 100.167 77.8334 100.202 77.8941C100.388 78.8169 100.553 79.6704 100.696 80.4372C100.696 80.4806 100.696 80.5196 100.718 80.5586L100.83 81.0221Z" fill="#FAAC44"/>
<path opacity="0.1" d="M82.352 82.9847C82.7029 83.08 83.0582 83.1667 83.4134 83.2447H94.5263C94.7603 83.1927 95.0029 83.1407 95.2368 83.08L95.6094 82.9847H82.352ZM100.752 80.4459C100.752 80.4026 100.73 80.3592 100.722 80.3159H75.8619C76.0135 80.4069 76.1608 80.4892 76.2951 80.5672H100.752C100.752 80.5282 100.752 80.4892 100.752 80.4459ZM100.224 77.7207C100.215 77.6966 100.208 77.672 100.202 77.6471H72.0493C72.1533 77.7381 72.2572 77.8247 72.3656 77.9027H100.237C100.224 77.842 100.211 77.7814 100.202 77.7207H100.224ZM99.643 74.9783H69.3155L69.5494 75.2339H99.6863C99.6603 75.1516 99.643 75.0866 99.6214 74.9783H99.643ZM67.6908 74.9783C67.6867 75.0224 67.678 75.066 67.6648 75.1082C67.6648 75.0649 67.6648 75.0216 67.6951 74.9783H67.6908ZM99.0191 72.3138H68.3103C68.3103 72.3961 68.2713 72.4827 68.2497 72.5651H99.0841L99.0191 72.3138ZM98.4039 69.7143C98.4039 69.6926 98.4039 69.6709 98.4039 69.645H69.0382C69.0165 69.7359 68.9862 69.8182 68.9645 69.9049H98.4646C98.4472 69.8356 98.4342 69.7749 98.4169 69.7056L98.4039 69.7143ZM97.7194 66.9718H69.8484C69.8157 67.0567 69.7882 67.1435 69.7661 67.2317H97.8017L97.7194 66.9718ZM97.0738 64.5109C97.0522 64.4416 97.0392 64.3766 97.0218 64.303H70.7495C70.7192 64.3896 70.6845 64.4763 70.6542 64.5543H97.0825C97.0819 64.5397 97.0834 64.5251 97.0868 64.5109H97.0738ZM96.307 61.7598L96.268 61.6341H71.7503C71.7157 61.7165 71.6854 61.7988 71.6507 61.8768H96.346C96.3353 61.8383 96.3266 61.7992 96.32 61.7598H96.307ZM95.4665 58.9653H72.8681C72.8291 59.052 72.7901 59.1343 72.7555 59.2253H95.5531C95.5531 59.1343 95.5055 59.0563 95.4795 58.9653H95.4665ZM94.6 56.3008H74.1202C74.0812 56.3745 74.0422 56.4568 74.0076 56.5348H94.717C94.6792 56.4588 94.6459 56.3807 94.6173 56.3008H94.6ZM93.7031 53.7577C93.7031 53.7143 93.6728 53.671 93.6555 53.6234H75.537L75.4546 53.775C75.4319 53.8111 75.4116 53.8487 75.394 53.8876H93.7681C93.7568 53.8428 93.7408 53.7992 93.7205 53.7577H93.7031ZM92.607 50.9675H77.1443C77.0923 51.0542 77.036 51.1408 76.9883 51.2275H92.724C92.6937 51.1365 92.6547 51.0498 92.6243 50.9675H92.607ZM91.3809 48.2944H79.0246L78.9683 48.3637C78.9201 48.4232 78.8752 48.4854 78.834 48.55H91.5196C91.4762 48.4633 91.4372 48.3767 91.3983 48.2944H91.3809ZM89.9252 45.7469L89.8385 45.6212H81.4248C81.4074 45.6287 81.3913 45.639 81.3772 45.6515C81.2905 45.7079 81.2169 45.7642 81.1389 45.8248L81.0739 45.8768H90.0248C89.994 45.8358 89.9664 45.7923 89.9425 45.7469H89.9252Z" fill="black"/>
<path d="M89.2753 52.4579C87.2304 52.8262 83.929 49.5551 82.6899 46.9816C82.6076 46.8083 82.9672 45.0146 83.2964 42.8137C83.4957 41.4793 83.682 39.9846 83.7557 38.6112L92.2604 41.1631C91.677 42.8541 91.3031 44.6103 91.1469 46.3924C91.1415 46.5821 91.1516 46.7719 91.1773 46.9599C91.1798 46.9902 91.1798 47.0206 91.1773 47.0509C91.3029 48.134 91.2509 52.0983 89.2753 52.4579Z" fill="#AD6359"/>
<path d="M91.1904 47.0509C91.1904 47.1116 91.1904 47.1766 91.1904 47.2502C86.0217 46.1584 84.4273 43.5416 83.5132 41.1327C83.6172 40.2879 83.7038 39.43 83.7428 38.6112L92.2475 41.1587C91.6645 42.8512 91.292 44.6089 91.1384 46.3924C91.1286 46.5821 91.1387 46.7723 91.1687 46.9599C91.1721 46.9911 91.1794 47.0216 91.1904 47.0509Z" fill="#263238"/>
<path d="M81.8061 28.7721C80.8573 31.8265 82.4344 40.6735 84.6049 42.6361C87.746 45.5042 92.9104 45.7988 95.3539 42.0209C97.7238 38.3556 95.4622 26.8571 93.0403 25.0635C89.4877 22.425 83.2055 24.2576 81.8061 28.7721Z" fill="#AD6359"/>
<path d="M89.0544 34.361C89.0544 34.361 89.011 34.4 89.0154 34.4216C89.1367 35.0152 89.18 35.7214 88.6731 36.0073C88.6731 36.0073 88.6731 36.0463 88.6731 36.0376C89.3446 35.8123 89.2796 34.8809 89.0544 34.361Z" fill="#263238"/>
<path d="M88.4305 33.8108C87.4557 33.9018 87.7156 35.8384 88.6168 35.7517C89.5179 35.6651 89.245 33.7328 88.4305 33.8108Z" fill="#263238"/>
<path d="M92.7803 33.7892C92.7803 33.7632 92.8323 33.7892 92.8366 33.8325C92.8973 34.4347 93.0663 35.1323 93.6381 35.2449C93.6381 35.2449 93.6381 35.2796 93.6381 35.2752C92.9536 35.2709 92.7413 34.3611 92.7803 33.7892Z" fill="#263238"/>
<path d="M93.2352 33.0916C94.1883 32.888 94.5349 34.8246 93.6381 34.9979C92.7413 35.1712 92.4337 33.2606 93.2352 33.0916Z" fill="#263238"/>
<path d="M87.5468 33.0266C87.7915 32.9183 88.0301 32.7969 88.2616 32.6627C88.5313 32.5692 88.7627 32.3895 88.9202 32.1514C88.9516 32.0671 88.956 31.975 88.9327 31.888C88.9094 31.8011 88.8596 31.7235 88.7902 31.6662C88.6301 31.5773 88.4491 31.5332 88.2661 31.5385C88.0831 31.5439 87.905 31.5984 87.7504 31.6965C87.4086 31.8455 87.134 32.1155 86.9792 32.4547C86.9444 32.5343 86.9343 32.6225 86.9502 32.7079C86.9662 32.7933 87.0074 32.8719 87.0686 32.9335C87.1298 32.9952 87.2081 33.037 87.2934 33.0536C87.3786 33.0702 87.4669 33.0608 87.5468 33.0266Z" fill="#263238"/>
<path d="M93.8549 32.0128C93.5875 31.9965 93.3213 31.9647 93.0577 31.9175C92.772 31.9253 92.4922 31.8351 92.2648 31.6619C92.2061 31.5931 92.1703 31.5077 92.1625 31.4176C92.1547 31.3274 92.1754 31.2371 92.2215 31.1593C92.3414 31.0221 92.4959 30.9196 92.6688 30.8624C92.8418 30.8053 93.027 30.7956 93.205 30.8344C93.5764 30.852 93.9282 31.0063 94.1928 31.2676C94.2579 31.3296 94.3021 31.4104 94.3193 31.4987C94.3364 31.5869 94.3257 31.6784 94.2886 31.7603C94.2514 31.8422 94.1897 31.9105 94.112 31.9557C94.0343 32.001 93.9444 32.0209 93.8549 32.0128Z" fill="#263238"/>
<path d="M90.0769 37.9483C90.2605 38.1652 90.4868 38.3417 90.7418 38.467C90.9967 38.5922 91.2749 38.6635 91.5586 38.6762C91.8075 38.6914 92.0571 38.6695 92.2995 38.6112C92.3467 38.6043 92.3932 38.5926 92.4381 38.5765L92.5638 38.5376C92.5946 38.5274 92.6213 38.5076 92.64 38.481C92.6588 38.4545 92.6685 38.4227 92.6678 38.3903C92.6707 38.3701 92.6707 38.3497 92.6678 38.3296V38.2776C92.6158 37.814 92.4771 37.1208 92.4771 37.1208C92.6591 37.1815 93.5689 37.4544 93.5256 37.2161C93.14 35.2319 92.7111 33.0309 91.9096 31.1506C91.9049 31.137 91.8953 31.1256 91.8825 31.1189C91.8698 31.1122 91.8549 31.1106 91.8411 31.1145C91.8272 31.1184 91.8153 31.1275 91.8079 31.1398C91.8005 31.1522 91.7981 31.1669 91.8013 31.181C92.0959 33.1003 92.7284 34.9546 93.0534 36.8782C92.7291 36.7767 92.3922 36.7213 92.0526 36.7136C91.9876 36.7396 92.3428 38.0566 92.3472 38.2646C92.3498 38.2716 92.3498 38.2793 92.3472 38.2863C91.5846 38.4899 90.9694 38.3339 90.1462 37.9137C90.0726 37.8574 90.0336 37.905 90.0769 37.9483Z" fill="#263238"/>
<path d="M91.9355 38.4379C91.7391 38.7716 91.4601 39.0491 91.1254 39.2438C90.9396 39.3428 90.7274 39.3807 90.5188 39.3521C90.0596 39.2915 89.9989 38.8885 90.0379 38.5289C90.0629 38.3398 90.1079 38.1539 90.1722 37.9744C90.6948 38.3145 91.3132 38.4771 91.9355 38.4379Z" fill="#263238"/>
<path d="M91.1254 39.2438C90.9396 39.3428 90.7274 39.3807 90.5188 39.3521C90.0596 39.2914 89.9989 38.8885 90.0379 38.5289C90.2731 38.509 90.5081 38.5686 90.7053 38.6982C90.9025 38.8278 91.0505 39.02 91.1254 39.2438Z" fill="#FF9CBD"/>
<path opacity="0.2" d="M81.8236 34.8376C82.3781 34.5083 83.3183 32.5327 83.7342 31.7225C84.1501 30.9123 83.8252 27.1474 83.6952 26.0339C82.8127 26.758 82.157 27.7205 81.8062 28.8067C81.399 30.0762 81.4553 32.446 81.8236 34.8376Z" fill="#263238"/>
<path d="M91.2509 28.2349C90.9799 28.6518 90.6067 28.9925 90.1669 29.2246C89.7271 29.4566 89.2352 29.5723 88.7381 29.5607C88.2319 29.549 87.7371 29.4084 87.3004 29.1521C86.8637 28.8959 86.4996 28.5325 86.2425 28.0963C86.2425 28.0703 86.1862 28.0963 86.1992 28.0963C86.4291 28.579 86.786 28.9902 87.2318 29.2855C87.6775 29.5809 88.1952 29.7494 88.7294 29.773C89.2582 29.7709 89.7771 29.6291 90.2336 29.3621C90.6901 29.0951 91.0679 28.7122 91.3289 28.2522C91.3332 28.2349 91.2769 28.1959 91.2509 28.2349Z" fill="#263238"/>
<path d="M87.3215 21.4935C85.6491 21.7491 84.2324 22.8756 83.7688 24.093C83.5098 24.7896 83.496 25.5538 83.7298 26.2593C83.7298 26.2896 83.7991 26.2593 83.7905 26.2593C83.6733 25.6268 83.7285 24.9745 83.9503 24.3707C84.1722 23.7669 84.5524 23.234 85.0512 22.8279C85.5927 22.3571 86.2363 22.0189 86.9312 21.8399C87.626 21.661 88.3529 21.6462 89.0545 21.7968C89.738 21.9301 90.3521 22.3016 90.7875 22.8452C90.8265 22.9016 90.9478 22.8452 90.9131 22.7889C90.3152 21.7968 88.8422 21.2639 87.3215 21.4935Z" fill="#263238"/>
<path d="M97.5289 23.859C97.1461 23.0687 96.4973 22.4383 95.6962 22.0784C94.5871 21.5758 93.439 21.8228 92.2995 22.0784C92.2949 22.0804 92.291 22.0837 92.2882 22.088C92.2854 22.0922 92.2839 22.0971 92.2839 22.1022C92.2839 22.1073 92.2854 22.1122 92.2882 22.1164C92.291 22.1207 92.2949 22.124 92.2995 22.126C93.2657 21.9051 94.2622 21.7318 95.224 22.0784C96.0203 22.358 96.6953 22.9045 97.1346 23.6251C97.5616 24.3692 97.7059 25.2423 97.5412 26.0842C97.3765 26.9262 96.9137 27.6805 96.2378 28.2089C95.8416 28.5035 95.3893 28.714 94.9087 28.8272C94.4281 28.9405 93.9294 28.9541 93.4433 28.8674C93.4043 28.8674 93.387 28.9151 93.4433 28.9237C94.3206 29.1066 95.2345 28.9633 96.0137 28.5206C96.7929 28.078 97.384 27.3664 97.6762 26.5192C97.9562 25.6446 97.9038 24.6974 97.5289 23.859Z" fill="#263238"/>
<path d="M81.516 30.5614C81.516 30.5614 79.549 27.7626 80.6495 25.8607C81.282 24.7862 83.7992 24.5999 83.7992 24.5999C84.3411 23.5225 85.2885 22.7044 86.4334 22.3253C88.4696 21.5845 91.1081 22.4943 91.1081 22.4943C91.1081 22.4943 92.9538 21.1079 94.9467 21.9397C97.7282 23.0965 97.9015 27.0911 95.4493 28.6898C93.7163 29.8119 91.0301 28.5035 91.0301 28.5035C90.7962 28.5641 88.526 30.3491 86.3987 28.3952C86.3987 28.3952 85.06 29.9246 83.5869 29.1534C83.4258 29.5707 83.1412 29.9291 82.7712 30.1807C82.4012 30.4322 81.9634 30.565 81.516 30.5614Z" fill="#263238"/>
<path d="M83.6646 35.9814C83.6646 35.9814 81.6197 33.1566 80.3329 33.8888C79.0462 34.621 80.6189 38.7412 82.1483 39.2827C82.34 39.3662 82.5466 39.4099 82.7557 39.4112C82.9648 39.4126 83.172 39.3715 83.3647 39.2905C83.5575 39.2095 83.7318 39.0903 83.8772 38.94C84.0226 38.7897 84.136 38.6116 84.2105 38.4162L83.6646 35.9814Z" fill="#AD6359"/>
<path d="M80.8227 35.0586C80.8169 35.0586 80.8114 35.0609 80.8074 35.0649C80.8033 35.069 80.801 35.0745 80.801 35.0803C80.801 35.086 80.8033 35.0915 80.8074 35.0956C80.8114 35.0996 80.8169 35.1019 80.8227 35.1019C81.8972 35.5352 82.4777 36.497 82.885 37.5151C82.82 37.4081 82.7327 37.3165 82.6289 37.2465C82.5252 37.1765 82.4075 37.1298 82.284 37.1097C82.1605 37.0895 82.034 37.0963 81.9134 37.1297C81.7928 37.163 81.6808 37.2221 81.5852 37.3028C81.5809 37.3081 81.5783 37.3146 81.5776 37.3214C81.577 37.3282 81.5784 37.3351 81.5816 37.3411C81.5849 37.3471 81.5898 37.352 81.5958 37.3553C81.6019 37.3585 81.6087 37.3598 81.6155 37.3592C81.8021 37.2961 82.0038 37.2926 82.1924 37.3493C82.3811 37.406 82.5474 37.5199 82.6683 37.6754C82.8688 37.937 83.0416 38.2187 83.1839 38.5159C83.2359 38.6112 83.4049 38.5549 83.3702 38.4466C83.3683 38.438 83.3683 38.4292 83.3702 38.4206C83.3659 37.0602 82.2784 35.1712 80.8227 35.0586Z" fill="#263238"/>
<path d="M77.1227 47.991C67.8641 56.5997 55.8934 75.0302 57.8084 78.9554C59.94 83.3269 72.8335 71.2523 72.8162 70.5157C72.8162 69.9568 77.6469 59.7928 81.2992 51.5784C84.9515 43.3639 79.4102 45.8638 77.1227 47.991Z" fill="#AD6359"/>
<path d="M57.8085 78.9555C59.6801 81.8973 65.0914 82.6771 78.5309 85.9135C80.3895 86.3468 87.0875 74.0901 85.1249 73.5096C82.6554 72.7774 72.9073 70.4768 72.1751 70.3945C65.9839 69.7316 56.5347 76.9582 57.8085 78.9555Z" fill="#AD6359"/>
<path d="M80.6624 73.0243C80.6624 73.0243 86.117 72.9593 88.9938 73.8172C92.8454 74.9609 95.7005 77.5345 96.8313 78.6826C99.1925 81.0871 103.243 88.526 101.302 90.0641C99.5695 91.4591 95.7959 83.6433 95.7959 83.6433C95.7959 83.6433 100.934 90.9825 98.5123 92.2693C96.0905 93.5561 92.2475 84.2412 92.2475 84.2412C92.2475 84.2412 97.3642 91.8967 94.6564 92.8325C92.6071 93.5387 88.6516 85.294 88.6516 85.294C88.6516 85.294 93.0057 91.9054 90.9304 92.7199C88.6386 93.6254 84.5097 86.2428 84.5097 86.2428C78.8774 87.4342 75.7277 85.7012 73.6221 84.2022C73.1152 83.8382 80.6624 73.0243 80.6624 73.0243Z" fill="#AD6359"/>
<path d="M94.1798 80.9961C94.8123 81.8323 95.4795 82.6815 96.0211 83.5956C96.5626 84.5098 97.1042 85.4023 97.5808 86.3425C98.2194 87.5623 98.7193 88.8499 99.0712 90.1811C98.2783 87.8632 96.3287 84.6354 95.7698 83.7386C95.2109 82.8418 94.6997 81.9276 94.1451 81.0351C94.1278 80.9918 94.1624 80.9745 94.1798 80.9961Z" fill="#263238"/>
<path d="M90.913 82.95C91.6798 84.0592 92.4813 85.1163 93.1962 86.2731C93.9111 87.4299 94.496 88.5476 95.1155 89.7391C95.1675 89.8301 95.1155 89.8257 95.0462 89.7391C94.3703 88.5823 93.6511 87.5728 92.9579 86.416C92.2647 85.2593 91.6192 84.0938 90.887 82.976C90.874 82.95 90.9043 82.937 90.913 82.95Z" fill="#263238"/>
<path d="M87.811 84.1285C89.0254 85.7996 90.0649 87.5911 90.913 89.4748C90.9564 89.5658 90.874 89.5528 90.8221 89.4748C89.8256 87.6508 89.0544 86.2471 87.7546 84.1848C87.7546 84.1415 87.785 84.0938 87.811 84.1285Z" fill="#263238"/>
<path d="M64.5325 72.2574C66.9617 70.6653 69.8911 70.0208 72.7642 70.4464C72.7989 70.4464 72.7989 70.5114 72.7642 70.5071C69.7878 70.2948 65.7022 71.6812 64.5325 72.3094C64.5238 72.3267 64.5021 72.2791 64.5325 72.2574Z" fill="#263238"/>
<path d="M63.835 60.0831L75.3421 66.6598C75.3421 66.6598 80.1079 57.5399 81.9405 51.5914C83.7732 45.6428 82.1441 42.9264 75.2728 48.9182C71.2372 52.4044 67.4176 56.1329 63.835 60.0831Z" fill="#FAAC44"/>
<path d="M75.953 64.2163C74.4164 63.1592 72.8538 62.1483 71.2652 61.1836C70.4811 60.7027 69.7012 60.2088 68.9084 59.7409C68.1155 59.2729 67.2403 58.831 66.4215 58.3501C66.3652 58.3155 66.3045 58.3978 66.3608 58.4368C67.132 58.9307 67.8729 59.4809 68.6441 59.9791C69.4153 60.4774 70.2514 60.98 71.0573 61.4782C72.6516 62.4631 74.2677 63.4062 75.9053 64.3073C75.953 64.3116 76.0007 64.2553 75.953 64.2163Z" fill="#263238"/>
<path d="M74.8569 66.3826C75.0302 66.4606 75.1992 66.5343 75.3682 66.6166L75.2945 66.6382C75.6195 65.7977 75.9877 64.9832 76.343 64.16C76.6983 63.3369 77.0968 62.5397 77.4954 61.7382C77.894 60.9367 78.2969 60.1395 78.7345 59.3553C79.1721 58.5711 79.601 57.7869 80.0819 57.0244C79.7743 57.8693 79.4234 58.6924 79.0595 59.5113C78.6955 60.3301 78.3186 61.1403 77.9287 61.9505C77.5388 62.7606 77.1315 63.5492 76.7112 64.342C76.291 65.1349 75.8447 65.919 75.4115 66.6859L75.3812 66.7336L75.3378 66.7076C75.1602 66.6036 75.0086 66.4909 74.8569 66.3826Z" fill="#263238"/>
<path d="M80.3072 58.623C79.8244 59.405 79.16 60.0589 78.3706 60.5293C78.6104 60.1356 78.9018 59.7757 79.2371 59.4592C79.5563 59.1356 79.916 58.8545 80.3072 58.623Z" fill="#263238"/>
<path d="M146.478 76.8847C145.871 81.8411 141.777 86.0956 141.777 86.0956C141.777 86.0956 135.919 85.3418 132.345 81.8584C129.364 78.9513 129.13 74.7618 131.587 72.9595C135.109 70.3599 138.519 76.889 138.519 76.889C138.519 76.889 137.145 69.6711 141.5 69.4545C144.541 69.3375 146.985 72.7515 146.478 76.8847Z" fill="#4472B7"/>
<path d="M149.311 56.5392C147.101 59.4767 142.929 60.6854 142.929 60.6854C142.929 60.6854 139.463 58.0513 138.471 54.516C137.639 51.5699 139.03 48.8101 141.257 48.5631C144.45 48.2165 144.246 53.6235 144.246 53.6235C144.246 53.6235 146.001 48.5024 148.86 49.9842C150.849 51.0153 151.152 54.087 149.311 56.5392Z" fill="#FAAC44"/>
<path d="M38.7412 52.5576C36.6009 55.5427 32.4547 56.8468 32.4547 56.8468C32.4547 56.8468 28.9367 54.295 27.8579 50.7813C26.9567 47.8525 28.2912 45.0624 30.5094 44.7678C33.6938 44.3346 33.6115 49.7588 33.6115 49.7588C33.6115 49.7588 35.2492 44.5988 38.1389 46.0112C40.1536 47.012 40.5305 50.0794 38.7412 52.5576Z" fill="#4472B7"/>
</svg>
