<svg xmlns="http://www.w3.org/2000/svg" viewBox="0 0 32 32"><g fill="none"><circle cx="16" cy="16" r="16" fill="#9945FF"/><path d="M10.24 20.29a.54.54 0 01.38-.16h13.1a.27.27 0 01.19.46l-2.59 2.57a.54.54 0 01-.38.16H7.84a.27.27 0 01-.19-.46l2.59-2.57zm0-9.58A.54.54 0 0110.62 10.55h13.1c.24 0 .36.29.19.46l-2.59 2.57a.54.54 0 01-.38.16H7.84a.27.27 0 01-.19-.46l2.59-2.57zm11.52 4.77a.54.54 0 00-.38-.16H8.28a.27.27 0 00-.19.46l2.59 2.57c.1.1.24.16.38.16h13.1a.27.27 0 00.19-.46l-2.59-2.57z" fill="#FFF"/></g></svg>
